<svg width="1200" height="790" viewBox="0 0 1200 790" xmlns="http://www.w3.org/2000/svg"><rect width="100%" height="100%" fill="#fff"/><g transform="translate(60 30) scale(.28) translate(-119 -107)"><path d="M128 190 L256 116 L384 190 L384 322 L256 396 L128 322 Z M128 190 L256 264 L384 190 M256 264 L256 396" fill="none" stroke="#3A3D42" stroke-width="18" stroke-linejoin="round" stroke-linecap="round"/></g><text x="190" y="115" font-family="'Segoe UI Semibold','Segoe UI','Segoe UI Variable',system-ui,-apple-system,'Helvetica Neue',Arial,sans-serif" font-weight="600" font-size="100" letter-spacing="-4" fill="#3A3D42">rigspec</text><text x="190" y="148" font-family="system-ui,Arial,sans-serif" font-size="18" fill="#9AA0A8">A  Segoe UI Semibold, lowercase (current)</text><g transform="translate(60 180) scale(.28) translate(-119 -107)"><path d="M128 190 L256 116 L384 190 L384 322 L256 396 L128 322 Z M128 190 L256 264 L384 190 M256 264 L256 396" fill="none" stroke="#3A3D42" stroke-width="18" stroke-linejoin="round" stroke-linecap="round"/></g><text x="190" y="265" font-family="'Segoe UI Semibold','Segoe UI','Segoe UI Variable',system-ui,-apple-system,'Helvetica Neue',Arial,sans-serif" font-weight="700" font-size="100" letter-spacing="-6" fill="#3A3D42">rigspec</text><text x="190" y="298" font-family="system-ui,Arial,sans-serif" font-size="18" fill="#9AA0A8">B  Segoe UI Bold, tight</text><g transform="translate(60 330) scale(.28) translate(-119 -107)"><path d="M128 190 L256 116 L384 190 L384 322 L256 396 L128 322 Z M128 190 L256 264 L384 190 M256 264 L256 396" fill="none" stroke="#3A3D42" stroke-width="18" stroke-linejoin="round" stroke-linecap="round"/></g><text x="190" y="415" font-family="'Segoe UI Semibold','Segoe UI','Segoe UI Variable',system-ui,-apple-system,'Helvetica Neue',Arial,sans-serif" font-weight="300" font-size="100" letter-spacing="2" fill="#3A3D42">rigspec</text><text x="190" y="448" font-family="system-ui,Arial,sans-serif" font-size="18" fill="#9AA0A8">C  Segoe UI Light, airy</text><g transform="translate(60 480) scale(.28) translate(-119 -107)"><path d="M128 190 L256 116 L384 190 L384 322 L256 396 L128 322 Z M128 190 L256 264 L384 190 M256 264 L256 396" fill="none" stroke="#3A3D42" stroke-width="18" stroke-linejoin="round" stroke-linecap="round"/></g><text x="190" y="565" font-family="'Segoe UI Semibold','Segoe UI','Segoe UI Variable',system-ui,-apple-system,'Helvetica Neue',Arial,sans-serif" font-weight="600" font-size="100" letter-spacing="-3" fill="#3A3D42">rig<tspan font-weight="300">spec</tspan></text><text x="190" y="598" font-family="system-ui,Arial,sans-serif" font-size="18" fill="#9AA0A8">D  Segoe UI Semibold, split rig|spec</text><g transform="translate(60 630) scale(.28) translate(-119 -107)"><path d="M128 190 L256 116 L384 190 L384 322 L256 396 L128 322 Z M128 190 L256 264 L384 190 M256 264 L256 396" fill="none" stroke="#3A3D42" stroke-width="18" stroke-linejoin="round" stroke-linecap="round"/></g><text x="190" y="715" font-family="'Segoe UI Semibold','Segoe UI','Segoe UI Variable',system-ui,-apple-system,'Helvetica Neue',Arial,sans-serif" font-weight="600" font-size="100" letter-spacing="14" fill="#3A3D42">RIGSPEC</text><text x="190" y="748" font-family="system-ui,Arial,sans-serif" font-size="18" fill="#9AA0A8">E  Segoe UI Semibold, caps spaced</text></svg>